<svg width="512" height="512" viewBox="0 0 512 512" fill="none" xmlns="http://www.w3.org/2000/svg">
<path d="M155.431 34.5576H144.431V45.5576C144.431 99.0098 187.919 142.497 241.371 142.497C304.142 142.497 354.874 193.473 354.874 256C354.874 318.511 303.883 369.502 241.371 369.502C187.919 369.502 144.431 412.99 144.431 466.442V477.442H155.431L241.345 477.442C241.349 477.442 241.354 477.442 241.358 477.442C363.673 477.725 463.089 378.599 463.089 256.275C463.089 133.97 363.97 34.5576 241.371 34.5576H155.431Z" fill="#63BF76" stroke="white" stroke-width="22"/>
<path d="M155.366 248.498L147.588 256.276L155.366 264.054L194.479 303.168L194.504 303.193L194.529 303.217C220.546 328.905 262.455 328.976 288.263 303.168C314.044 277.387 314.044 235.165 288.263 209.384C262.482 183.604 220.26 183.604 194.479 209.384L201.659 216.564L194.479 209.384L155.366 248.498Z" fill="#63BF76" stroke="white" stroke-width="22"/>
</svg>
