<svg width="512" height="512" viewBox="0 0 512 512" fill="none" xmlns="http://www.w3.org/2000/svg">
<rect width="512" height="512" fill="white"/>
<g opacity="0.7">
<path d="M455.061 167.641V237.271C451.317 237.271 446.825 238.02 442.333 238.02C408.64 238.02 377.194 225.292 353.235 205.077V353.323C353.235 383.271 343.502 411.723 326.281 434.184C302.322 466.379 263.389 488.092 219.215 488.092C171.297 488.092 129.369 462.635 106.159 425.199C130.118 447.661 162.312 461.887 197.502 461.887C240.928 461.887 279.861 440.922 303.82 407.979C320.292 385.517 330.774 357.815 330.774 327.117V178.123C354.733 199.087 385.43 211.066 419.871 211.066C424.363 211.066 428.107 211.066 432.599 210.318V165.395C439.338 166.892 445.327 167.641 452.066 167.641H455.061Z" fill="#FF004F"/>
<path d="M237.933 219.303V296.421C232.692 294.923 226.702 294.175 221.461 294.175C188.517 294.175 161.564 321.877 161.564 355.569C161.564 363.057 163.061 369.795 165.307 376.534C150.333 365.303 139.851 347.334 139.851 327.118C139.851 293.426 166.805 265.723 199.748 265.723C205.738 265.723 210.979 266.472 216.22 267.97V218.554C217.717 218.554 219.215 218.554 220.712 218.554C226.702 218.554 232.692 218.554 237.933 219.303Z" fill="#FF004F"/>
<path d="M364.466 112.234C350.989 100.254 341.255 83.7825 336.014 66.562H353.984C353.984 70.3056 353.984 73.3005 353.984 77.0441C355.481 89.0235 359.225 101.003 364.466 112.234Z" fill="#FF004F"/>
<path d="M433.348 166.141V211.064C429.605 211.813 425.112 211.813 420.62 211.813C386.928 211.813 355.482 199.085 331.523 178.87V327.116C331.523 357.064 321.789 385.516 304.569 407.977C279.861 440.921 241.677 461.885 198.251 461.885C163.061 461.885 130.866 447.659 106.907 425.198C94.1792 404.233 86.692 380.275 86.692 354.069C86.692 281.444 144.343 222.295 216.22 220.049V269.464C210.979 267.967 204.989 267.218 199.748 267.218C166.805 267.218 139.851 294.921 139.851 328.613C139.851 348.828 149.584 367.546 165.307 378.028C173.543 401.239 196.005 418.459 221.461 418.459C254.405 418.459 281.359 390.757 281.359 357.064V66.562H336.015C341.256 84.5312 350.989 100.254 364.466 112.234C377.943 139.188 403.399 159.403 433.348 166.141Z" fill="black"/>
<path d="M216.22 193.097V218.553C144.343 220.799 86.6916 279.948 86.6916 352.573C86.6916 378.778 94.1788 402.737 106.907 423.701C81.4506 398.994 65.7275 364.553 65.7275 325.619C65.7275 251.496 125.625 191.599 198.999 191.599C204.989 191.599 210.979 192.348 216.22 193.097Z" fill="#00F7EF"/>
<path d="M336.015 66.5628H281.359V355.568C281.359 389.26 254.405 416.962 221.461 416.962C195.256 416.962 173.543 400.491 165.307 376.532C175.041 383.27 187.02 387.762 199.748 387.762C232.692 387.762 259.646 360.809 259.646 327.116V37.3628H332.271V38.8602C332.271 41.8551 332.271 44.85 333.02 47.8448C333.02 53.8346 334.517 60.573 336.015 66.5628Z" fill="#00F7EF"/>
<path d="M433.348 138.44V165.394C403.399 159.404 377.943 139.189 363.717 112.235C382.435 129.455 406.394 139.189 433.348 138.44Z" fill="#00F7EF"/>
</g>
<g filter="url(#filter0_d_1257_44)">
<path d="M107.731 50.6484H242.09C246.381 51.9399 247.901 52.3774 251.401 55.1479C253.734 56.981 291.459 94.893 293.021 97.4135C294.229 99.3508 294.875 101.684 295.583 103.85V260.706C293.375 270.642 286.48 278.079 276.46 280.141H105.481C95.7117 277.829 90.3582 272.225 87.0045 262.956L86.692 71.7084C87.9002 59.8765 96.3158 52.5649 107.752 50.6484H107.731Z" fill="black"/>
<path d="M242.09 66.3969L279.044 103.996C272.003 103.538 250.005 104.621 246.589 103.996C245.027 103.705 242.277 101.538 241.923 99.9761C241.423 97.6847 242.173 72.6461 242.09 66.3969Z" fill="white"/>
<path d="M103.065 254.436V75.3955C103.732 71.4585 108.085 66.7299 111.897 66.0842C118.042 65.0218 213.447 66.8966 230.508 66.0842C231.362 74.7498 229.904 96.5388 230.674 101.913C231.487 107.642 237.903 114.141 243.694 114.932C249.255 115.703 270.503 114.224 279.21 115.099C278.273 134.347 280.439 248.645 279.21 255.561C278.523 259.477 273.565 263.227 269.732 263.747H112.23C107.439 262.581 103.836 259.54 103.065 254.436Z" fill="white"/>
<path d="M238.661 163.72C243.994 166.8 243.994 174.498 238.661 177.577L162.983 221.27C157.65 224.349 150.983 220.5 150.983 214.341L150.983 126.956C150.983 120.797 157.65 116.948 162.983 120.028L238.661 163.72Z" fill="black"/>
</g>
<g filter="url(#filter1_d_1257_44)">
<path d="M189.716 143.994H324.074C328.365 145.286 329.886 145.723 333.385 148.494C335.719 150.327 373.443 188.239 375.005 190.759C376.214 192.697 376.859 195.03 377.568 197.196V354.052C375.36 363.988 368.465 371.425 358.445 373.487H187.466C177.696 371.175 172.343 365.571 168.989 356.301L168.677 165.054C169.885 153.222 178.3 145.911 189.736 143.994H189.716Z" fill="black"/>
<path d="M324.074 159.743L361.028 197.342C353.987 196.884 331.99 197.967 328.574 197.342C327.011 197.051 324.262 194.884 323.908 193.322C323.408 191.03 324.158 165.992 324.074 159.743Z" fill="white"/>
<path d="M185.049 347.782V168.741C185.716 164.804 190.07 160.076 193.882 159.43C200.027 158.368 295.432 160.242 312.492 159.43C313.346 168.095 311.888 189.884 312.659 195.259C313.471 200.987 319.887 207.486 325.678 208.278C331.24 209.049 352.487 207.57 361.195 208.445C360.257 227.692 362.424 341.991 361.195 348.907C360.507 352.823 355.549 356.572 351.717 357.093H194.215C189.424 355.927 185.82 352.885 185.049 347.782Z" fill="white"/>
<path d="M320.646 257.066C325.979 260.145 325.979 267.843 320.646 270.923L244.967 314.615C239.634 317.695 232.967 313.846 232.967 307.687L232.967 220.302C232.967 214.143 239.634 210.294 244.967 213.373L320.646 257.066Z" fill="black"/>
</g>
<g filter="url(#filter2_d_1257_44)">
<path d="M271.7 237.34H406.059C410.35 238.631 411.871 239.069 415.37 241.839C417.703 243.672 455.428 281.584 456.99 284.105C458.198 286.042 458.844 288.375 459.552 290.542V447.397C457.344 457.334 450.449 464.77 440.43 466.833H269.45C259.681 464.52 254.327 458.917 250.974 449.647L250.661 258.4C251.869 246.568 260.285 239.256 271.721 237.34H271.7Z" fill="black"/>
<path d="M406.059 253.088L443.013 290.688C435.972 290.23 413.975 291.313 410.558 290.688C408.996 290.396 406.246 288.23 405.892 286.668C405.392 284.376 406.142 259.338 406.059 253.088Z" fill="white"/>
<path d="M267.034 441.128V262.087C267.701 258.15 272.054 253.421 275.866 252.776C282.011 251.713 377.416 253.588 394.477 252.776C395.331 261.441 393.873 283.23 394.643 288.605C395.456 294.333 401.872 300.832 407.663 301.624C413.224 302.395 434.472 300.916 443.179 301.79C442.242 321.038 444.408 435.337 443.179 442.252C442.492 446.169 437.534 449.918 433.701 450.439H276.2C271.409 449.272 267.805 446.231 267.034 441.128Z" fill="white"/>
<path d="M402.63 350.412C407.964 353.491 407.964 361.189 402.63 364.268L326.952 407.961C321.619 411.04 314.952 407.191 314.952 401.033L314.952 313.647C314.952 307.489 321.619 303.64 326.952 306.719L402.63 350.412Z" fill="black"/>
</g>
<defs>
<filter id="filter0_d_1257_44" x="51.592" y="15.5484" width="243.991" height="264.593" filterUnits="userSpaceOnUse" color-interpolation-filters="sRGB">
<feFlood flood-opacity="0" result="BackgroundImageFix"/>
<feColorMatrix in="SourceAlpha" type="matrix" values="0 0 0 0 0 0 0 0 0 0 0 0 0 0 0 0 0 0 127 0" result="hardAlpha"/>
<feOffset dx="-20" dy="-20"/>
<feGaussianBlur stdDeviation="7.55"/>
<feComposite in2="hardAlpha" operator="out"/>
<feColorMatrix type="matrix" values="0 0 0 0 0 0 0 0 0 0 0 0 0 0 0 0 0 0 0.25 0"/>
<feBlend mode="normal" in2="BackgroundImageFix" result="effect1_dropShadow_1257_44"/>
<feBlend mode="normal" in="SourceGraphic" in2="effect1_dropShadow_1257_44" result="shape"/>
</filter>
<filter id="filter1_d_1257_44" x="133.577" y="108.894" width="243.991" height="264.593" filterUnits="userSpaceOnUse" color-interpolation-filters="sRGB">
<feFlood flood-opacity="0" result="BackgroundImageFix"/>
<feColorMatrix in="SourceAlpha" type="matrix" values="0 0 0 0 0 0 0 0 0 0 0 0 0 0 0 0 0 0 127 0" result="hardAlpha"/>
<feOffset dx="-20" dy="-20"/>
<feGaussianBlur stdDeviation="7.55"/>
<feComposite in2="hardAlpha" operator="out"/>
<feColorMatrix type="matrix" values="0 0 0 0 0 0 0 0 0 0 0 0 0 0 0 0 0 0 0.25 0"/>
<feBlend mode="normal" in2="BackgroundImageFix" result="effect1_dropShadow_1257_44"/>
<feBlend mode="normal" in="SourceGraphic" in2="effect1_dropShadow_1257_44" result="shape"/>
</filter>
<filter id="filter2_d_1257_44" x="215.561" y="202.24" width="243.991" height="264.593" filterUnits="userSpaceOnUse" color-interpolation-filters="sRGB">
<feFlood flood-opacity="0" result="BackgroundImageFix"/>
<feColorMatrix in="SourceAlpha" type="matrix" values="0 0 0 0 0 0 0 0 0 0 0 0 0 0 0 0 0 0 127 0" result="hardAlpha"/>
<feOffset dx="-20" dy="-20"/>
<feGaussianBlur stdDeviation="7.55"/>
<feComposite in2="hardAlpha" operator="out"/>
<feColorMatrix type="matrix" values="0 0 0 0 0 0 0 0 0 0 0 0 0 0 0 0 0 0 0.25 0"/>
<feBlend mode="normal" in2="BackgroundImageFix" result="effect1_dropShadow_1257_44"/>
<feBlend mode="normal" in="SourceGraphic" in2="effect1_dropShadow_1257_44" result="shape"/>
</filter>
</defs>
</svg>
